<svg width="76" height="61" viewBox="0 0 76 61" fill="none" xmlns="http://www.w3.org/2000/svg">
<g filter="url(#filter0_d_57_172)">
<mask id="mask0_57_172" style="mask-type:luminance" maskUnits="userSpaceOnUse" x="4" y="0" width="68" height="53">
<path d="M4.72388 0.695129H71.2762V52.3049H4.72388V0.695129Z" fill="white"/>
</mask>
<g mask="url(#mask0_57_172)">
<path d="M56.0308 27.0594C60.9956 18.5926 65.9306 10.1066 70.8657 1.62159C71.0198 1.35627 71.1274 1.06137 71.2745 0.736023H4.72388C5.92832 2.79596 7.08374 4.71671 8.17614 6.67313C8.49301 7.24031 8.83963 7.443 9.49787 7.443C25.5976 7.42299 41.6965 7.42647 57.7945 7.42473C58.3136 7.42473 58.8335 7.42473 59.5084 7.42473C59.2957 7.85881 59.1732 8.15197 59.0156 8.42425C56.7564 12.3101 54.4797 16.1864 52.2415 20.0836C51.8853 20.7038 51.4879 20.9231 50.7578 20.9205C43.7728 20.8883 36.7869 20.9022 29.8018 20.9022C29.3493 20.9022 28.8993 20.9022 28.2472 20.9022C29.4841 23.0369 30.636 24.9873 31.7433 26.9628C31.9192 27.2751 32.1153 27.4726 32.3717 27.5813H43.9435C45.421 30.0771 45.4875 30.1936 45.5462 30.2998C48.0225 34.8189 50.6484 39.2607 58.009 52.2562H65.9044C59.4717 40.843 56.1568 35.1017 51.7522 27.5813H55.3025C55.5966 27.4848 55.8986 27.2821 56.0308 27.0594Z" fill="white"/>
<path d="M36.1907 35.875C35.6576 36.6884 35.1919 37.5444 34.6125 38.5352L34.0952 37.6461L30.3278 31.161H30.333L30.0232 30.6269L30.0214 30.6242C29.9575 30.5512 29.8989 30.4659 29.842 30.3641C28.1622 27.4065 26.4265 24.4766 24.7161 21.5355C23.9773 20.2645 23.2534 18.991 22.421 17.5478H23.6123C26.7731 17.5478 29.9321 17.5461 33.0938 17.5461C38.2494 17.5478 43.4051 17.533 48.5616 17.5678C49.4395 17.5765 49.9989 17.4069 50.4374 16.5466C51.3066 14.8407 52.3421 13.2183 53.3006 11.5585C53.424 11.3471 53.501 11.1062 53.6052 10.8669H10.627C14.5099 17.5443 18.3788 24.1974 22.2468 30.8487H22.2433C26.3591 37.9254 30.4783 45.0081 34.6177 52.1283C37.8275 46.6114 40.9183 41.2936 44.1193 35.7897H36.2528C36.2309 35.8167 36.2091 35.8463 36.1907 35.875Z" fill="white"/>
</g>
</g>
<defs>
<filter id="filter0_d_57_172" x="0.723877" y="0.736023" width="74.5505" height="59.5202" filterUnits="userSpaceOnUse" color-interpolation-filters="sRGB">
<feFlood flood-opacity="0" result="BackgroundImageFix"/>
<feColorMatrix in="SourceAlpha" type="matrix" values="0 0 0 0 0 0 0 0 0 0 0 0 0 0 0 0 0 0 127 0" result="hardAlpha"/>
<feOffset dy="4"/>
<feGaussianBlur stdDeviation="2"/>
<feComposite in2="hardAlpha" operator="out"/>
<feColorMatrix type="matrix" values="0 0 0 0 0.0658854 0 0 0 0 0.389125 0 0 0 0 0.6875 0 0 0 1 0"/>
<feBlend mode="normal" in2="BackgroundImageFix" result="effect1_dropShadow_57_172"/>
<feBlend mode="normal" in="SourceGraphic" in2="effect1_dropShadow_57_172" result="shape"/>
</filter>
</defs>
</svg>
