<svg width="154" height="71" viewBox="0 0 154 71" fill="none" xmlns="http://www.w3.org/2000/svg">
<g filter="url(#filter0_di_10_356)">
<path d="M12.3137 48.3594C9.37325 41.0987 13.2187 33.9779 20.9028 32.4548L120.58 12.697C128.264 11.1739 136.877 15.8252 139.818 23.086C142.758 30.3467 138.913 37.4674 131.229 38.9906L31.5513 58.7483C23.8672 60.2714 15.2542 55.6202 12.3137 48.3594Z" fill="#482082" fill-opacity="0.06" shape-rendering="crispEdges"/>
<path d="M12.3137 48.3594C9.37325 41.0987 13.2187 33.9779 20.9028 32.4548L120.58 12.697C128.264 11.1739 136.877 15.8252 139.818 23.086C142.758 30.3467 138.913 37.4674 131.229 38.9906L31.5513 58.7483C23.8672 60.2714 15.2542 55.6202 12.3137 48.3594Z" fill="#891BA5" fill-opacity="0.21" shape-rendering="crispEdges"/>
</g>
<defs>
<filter id="filter0_di_10_356" x="0.625806" y="0.708203" width="152.88" height="70.0289" filterUnits="userSpaceOnUse" color-interpolation-filters="sRGB">
<feFlood flood-opacity="0" result="BackgroundImageFix"/>
<feColorMatrix in="SourceAlpha" type="matrix" values="0 0 0 0 0 0 0 0 0 0 0 0 0 0 0 0 0 0 127 0" result="hardAlpha"/>
<feOffset dx="1"/>
<feGaussianBlur stdDeviation="5.85"/>
<feComposite in2="hardAlpha" operator="out"/>
<feColorMatrix type="matrix" values="0 0 0 0 0.262745 0 0 0 0 0.160784 0 0 0 0 0.509804 0 0 0 1 0"/>
<feBlend mode="normal" in2="BackgroundImageFix" result="effect1_dropShadow_10_356"/>
<feBlend mode="normal" in="SourceGraphic" in2="effect1_dropShadow_10_356" result="shape"/>
<feColorMatrix in="SourceAlpha" type="matrix" values="0 0 0 0 0 0 0 0 0 0 0 0 0 0 0 0 0 0 127 0" result="hardAlpha"/>
<feOffset dy="4"/>
<feGaussianBlur stdDeviation="2"/>
<feComposite in2="hardAlpha" operator="arithmetic" k2="-1" k3="1"/>
<feColorMatrix type="matrix" values="0 0 0 0 0 0 0 0 0 0 0 0 0 0 0 0 0 0 0.25 0"/>
<feBlend mode="normal" in2="shape" result="effect2_innerShadow_10_356"/>
</filter>
</defs>
</svg>
